<svg width="144" height="38" viewBox="0 0 144 38" fill="none" xmlns="http://www.w3.org/2000/svg">
<path d="M114.884 9.48013C113.626 9.48013 112.599 10.5432 112.599 11.8459V22.9139L102.273 10.6474C101.717 9.93869 100.879 9.5114 99.9351 9.5114C98.2892 9.5114 96.9369 10.8975 96.9369 12.5963C96.9369 12.7213 96.9474 12.836 96.9474 12.9506V27.5829C96.9683 28.8126 97.9642 29.6672 99.1698 29.6672C100.375 29.6672 101.382 28.8022 101.382 27.562V16.4315L111.739 28.5729C112.305 29.2295 113.123 29.636 114.045 29.636C115.765 29.636 117.148 28.2082 117.148 26.4365V11.8459C117.148 10.5432 116.132 9.48013 114.884 9.48013Z" fill="#292929"/>
<path d="M137.004 26.1968L125.882 11.7938L125.179 10.8871C124.624 10.0429 123.68 9.48013 122.621 9.48013C120.986 9.48013 119.634 10.835 119.571 12.5025V27.2911C119.571 28.6042 120.577 29.6568 121.835 29.6568C123.03 29.6568 124.005 28.6876 124.11 27.4682V25.6131H131.312L133.691 28.7293C134.058 29.2816 134.698 29.6568 135.411 29.6568C136.553 29.6568 137.486 28.698 137.486 27.5203C137.486 27.0201 137.298 26.5511 137.015 26.1968M125.892 20.9858H124.12V16.3064L125.892 18.6618L127.643 20.9858H125.892Z" fill="#292929"/>
<path d="M33.5561 27.114V12.6277C33.5561 10.9081 32.2142 9.51154 30.5369 9.51154C29.3837 9.51154 28.3774 10.1785 27.8637 11.179L21.6262 21.4966V12.5651C21.6367 10.8664 20.3158 9.50111 18.6699 9.50111C17.4958 9.50111 16.4894 10.2098 16.0072 11.2103L6.99163 26.4053C6.8239 26.7076 6.72955 27.0619 6.72955 27.4475C6.72955 28.646 7.66256 29.5944 8.81571 29.5944C9.61243 29.5944 10.3148 29.1254 10.6503 28.448L17.0345 17.8177V26.5825C17.0241 28.25 18.3449 29.6153 19.9489 29.6153C21.1125 29.6153 22.1084 28.9274 22.5906 27.9478L28.7128 17.8177V27.1557C28.7338 28.5105 29.824 29.6153 31.1449 29.6153C32.4658 29.6153 33.5665 28.5001 33.5665 27.1036" fill="#292929"/>
<path d="M92.3144 25.0816L84.5149 25.0712V21.6633H92.283C93.5305 21.6528 94.5264 20.6002 94.5264 19.3183C94.5264 18.0365 93.5305 17.0047 92.283 17.0047H84.5149V14.0866H92.3144C93.52 14.0866 94.5159 13.0548 94.5159 11.7938C94.5159 10.5327 93.5305 9.5114 92.3249 9.48013H82.5231C81.1708 9.5114 80.0596 10.637 80.0596 12.0439V27.0826C80.0596 28.5 81.1708 29.6464 82.5336 29.6464H82.7747L92.3249 29.636C93.5305 29.6151 94.5054 28.5938 94.5054 27.3432C94.5054 26.0925 93.52 25.0712 92.3144 25.0712" fill="#292929"/>
<path d="M69.3347 9.53225H60.3715C59.0297 9.53225 57.929 10.6578 57.929 12.0543L57.9499 12.3774V26.8012L57.929 27.1243C57.929 28.5104 59.0192 29.6568 60.3715 29.6568H60.4764L67.9614 29.6464H69.3347C69.3347 29.6464 77.6793 29.4692 77.6793 19.4747C77.6793 9.48014 69.3556 9.53225 69.3347 9.53225ZM68.7895 24.8523H62.6883V14.2533H68.7895C68.7895 14.2533 73.182 14.2429 73.182 19.4851C73.182 24.7273 68.7895 24.8628 68.7895 24.8628" fill="#292929"/>
<path d="M45.7059 9.52182C40.3176 9.53224 35.9565 14.0345 35.9565 19.5789C35.9565 25.1233 40.3176 29.636 45.7059 29.6568C51.0943 29.6568 55.4658 25.1442 55.4658 19.5789C55.4658 14.0136 51.0943 9.52182 45.7059 9.52182ZM45.7059 24.9253C42.844 24.9253 40.5377 22.5179 40.5377 19.5789C40.5377 16.6399 42.844 14.2429 45.7059 14.2429C48.5678 14.2429 50.8846 16.6295 50.8846 19.5789C50.8846 22.5283 48.5573 24.9253 45.7059 24.9253Z" fill="#292929"/>
</svg>
