<svg width="176" height="45" viewBox="0 0 176 45" fill="none" xmlns="http://www.w3.org/2000/svg">
<path d="M140.156 10.9219C138.626 10.9219 137.377 12.2147 137.377 13.7991V27.2602L124.818 12.3415C124.142 11.4796 123.122 10.9599 121.975 10.9599C119.973 10.9599 118.328 12.6457 118.328 14.7118C118.328 14.8639 118.341 15.0033 118.341 15.1427V32.9387C118.367 34.4344 119.578 35.4738 121.044 35.4738C122.51 35.4738 123.734 34.4217 123.734 32.9134V19.3762L136.331 34.1429C137.02 34.9414 138.014 35.4357 139.136 35.4357C141.227 35.4357 142.91 33.6992 142.91 31.5444V13.7991C142.91 12.2147 141.673 10.9219 140.156 10.9219Z" fill="white"/>
<path d="M167.059 31.2529L153.531 13.7358L152.677 12.633C152.001 11.6063 150.854 10.9219 149.566 10.9219C147.577 10.9219 145.932 12.5697 145.856 14.5977V32.5838C145.856 34.1809 147.08 35.4611 148.61 35.4611C150.063 35.4611 151.249 34.2823 151.377 32.7993V30.5431H160.136L163.03 34.333C163.476 35.0048 164.254 35.4611 165.121 35.4611C166.511 35.4611 167.645 34.295 167.645 32.8627C167.645 32.2542 167.416 31.6839 167.072 31.2529M153.544 24.9153H151.389V19.2241L153.544 22.0887L155.673 24.9153H153.544Z" fill="white"/>
<path d="M41.2435 32.3684V14.7498C41.2435 12.6584 39.6115 10.9599 37.5715 10.9599C36.169 10.9599 34.945 11.7712 34.3203 12.988L26.7341 25.5364V14.6738C26.7469 12.6077 25.1404 10.9473 23.1387 10.9473C21.7107 10.9473 20.4867 11.8092 19.9002 13.026L8.93538 31.5065C8.73139 31.874 8.61664 32.305 8.61664 32.774C8.61664 34.2316 9.75137 35.3851 11.1539 35.3851C12.1228 35.3851 12.9771 34.8147 13.3851 33.9908L21.1497 21.0621V31.7219C21.137 33.75 22.7435 35.4104 24.6942 35.4104C26.1094 35.4104 27.3206 34.5739 27.9071 33.3824L35.353 21.0621V32.4191C35.3785 34.0668 36.7045 35.4104 38.311 35.4104C39.9175 35.4104 41.2562 34.0542 41.2562 32.3557" fill="white"/>
<path d="M112.706 29.8967L103.221 29.884V25.7392H112.668C114.185 25.7265 115.397 24.4463 115.397 22.8873C115.397 21.3282 114.185 20.0734 112.668 20.0734H103.221V16.5243H112.706C114.173 16.5243 115.384 15.2695 115.384 13.7358C115.384 12.2021 114.185 10.9599 112.719 10.9219H100.798C99.1533 10.9599 97.8018 12.3288 97.8018 14.04V32.3303C97.8018 34.0541 99.1533 35.4484 100.811 35.4484H101.104L112.719 35.4357C114.185 35.4104 115.371 34.1682 115.371 32.6472C115.371 31.1262 114.173 29.884 112.706 29.884" fill="white"/>
<path d="M84.7582 10.9854H73.8571C72.2251 10.9854 70.8864 12.3543 70.8864 14.0528L70.9119 14.4457V31.9882L70.8864 32.3811C70.8864 34.0669 72.2124 35.4612 73.8571 35.4612H73.9846L83.088 35.4485H84.7582C84.7582 35.4485 94.9071 35.233 94.9071 23.0775C94.9071 10.922 84.7837 10.9854 84.7582 10.9854ZM84.0952 29.6179H76.6748V16.7272H84.0952C84.0952 16.7272 89.4374 16.7146 89.4374 23.0902C89.4374 29.4658 84.0952 29.6306 84.0952 29.6306" fill="white"/>
<path d="M56.0204 10.9727C49.467 10.9853 44.163 16.461 44.163 23.2042C44.163 29.9474 49.467 35.4358 56.0204 35.4612C62.5738 35.4612 67.8905 29.9728 67.8905 23.2042C67.8905 16.4357 62.5738 10.9727 56.0204 10.9727ZM56.0204 29.7066C52.5397 29.7066 49.7347 26.7786 49.7347 23.2042C49.7347 19.6298 52.5397 16.7145 56.0204 16.7145C59.5011 16.7145 62.3188 19.6171 62.3188 23.2042C62.3188 26.7913 59.4883 29.7066 56.0204 29.7066Z" fill="white"/>
</svg>
